<svg width="25" height="25" viewBox="0 0 25 25" fill="none" xmlns="http://www.w3.org/2000/svg">
<path d="M10.8799 17.3497C8.17284 17.0109 6.26562 14.9996 6.26562 12.3954C6.26562 11.3368 6.63477 10.1935 7.25 9.43136C6.98339 8.73267 7.0244 7.25064 7.33203 6.63666C8.15234 6.53079 9.25977 6.97541 9.91602 7.58939C10.6953 7.33533 11.5156 7.20829 12.5205 7.20829C13.5254 7.20829 14.3457 7.33533 15.084 7.56823C15.7197 6.97542 16.8477 6.53079 17.668 6.63666C17.9551 7.20829 17.9961 8.69033 17.7295 9.41018C18.3857 10.2147 18.7344 11.2945 18.7344 12.3954C18.7344 14.9996 16.8271 16.9686 14.0791 17.3285C14.7764 17.7943 15.248 18.8105 15.248 19.975V22.1769C15.248 22.812 15.7607 23.1719 16.376 22.9179C20.0879 21.4569 23 17.6249 23 12.8824C23 6.89073 18.2832 2 12.4795 2C6.67578 2 2 6.8907 2 12.8824C2 17.5825 4.89159 21.4782 8.78808 22.9391C9.3418 23.1507 9.875 22.7697 9.875 22.1981V20.5043C9.58789 20.6313 9.21875 20.716 8.89062 20.716C7.53711 20.716 6.73729 19.9538 6.16307 18.5353C5.9375 17.9636 5.69141 17.6249 5.21972 17.5614C4.97362 17.5402 4.89159 17.4344 4.89159 17.3073C4.89159 17.0533 5.30175 16.8627 5.7119 16.8627C6.30664 16.8627 6.81933 17.2438 7.35253 18.0272C7.76268 18.6411 8.19336 18.9164 8.70604 18.9164C9.21875 18.9164 9.54688 18.7258 10.0185 18.2389C10.3672 17.8789 10.6338 17.5614 10.8799 17.3497Z" fill="#34B1E9"/>
</svg>
