<svg width="25" height="25" viewBox="0 0 25 25" fill="none" xmlns="http://www.w3.org/2000/svg">
<path d="M15.625 21.875V13.5417C15.625 13.2654 15.5153 13.0004 15.3199 12.8051C15.1246 12.6097 14.8596 12.5 14.5833 12.5H10.4167C10.1404 12.5 9.87545 12.6097 9.6801 12.8051C9.48475 13.0004 9.375 13.2654 9.375 13.5417V21.875" stroke="black" stroke-width="2.0" stroke-linecap="round" stroke-linejoin="round"/>
<path d="M3.125 10.4166C3.12493 10.1135 3.19097 9.81412 3.31853 9.53922C3.44609 9.26432 3.63208 9.02055 3.86354 8.82493L11.1552 2.57493C11.5312 2.25713 12.0077 2.08276 12.5 2.08276C12.9923 2.08276 13.4688 2.25713 13.8448 2.57493L21.1365 8.82493C21.3679 9.02055 21.5539 9.26432 21.6815 9.53922C21.809 9.81412 21.8751 10.1135 21.875 10.4166V19.7916C21.875 20.3441 21.6555 20.874 21.2648 21.2647C20.8741 21.6554 20.3442 21.8749 19.7917 21.8749H5.20833C4.6558 21.8749 4.12589 21.6554 3.73519 21.2647C3.34449 20.874 3.125 20.3441 3.125 19.7916V10.4166Z" stroke="black" stroke-width="2.0" stroke-linecap="round" stroke-linejoin="round"/>
</svg>
