<svg width="25" height="25" viewBox="0 0 25 25" fill="none" xmlns="http://www.w3.org/2000/svg">
<path d="M2 3.50412C2 2.67331 2.69037 2 3.54219 2H21.4578C22.3096 2 23 2.67331 23 3.50412V21.4959C23 22.3267 22.3096 23 21.4578 23H3.54219C2.69037 23 2 22.3267 2 21.4959V3.50412ZM8.48769 19.5796V10.0968H5.33637V19.5796H8.48769ZM6.91269 8.80138C8.01125 8.80138 8.69506 8.07425 8.69506 7.16337C8.67537 6.23281 8.01256 5.52538 6.93369 5.52538C5.85481 5.52538 5.15 6.23412 5.15 7.16337C5.15 8.07425 5.83381 8.80138 6.89169 8.80138H6.91269ZM13.3544 19.5796V14.2837C13.3544 14.0002 13.3754 13.7167 13.4594 13.5146C13.6865 12.9489 14.2049 12.3622 15.0764 12.3622C16.217 12.3622 16.6724 13.2311 16.6724 14.5068V19.5796H19.8237V14.1406C19.8237 11.2269 18.2698 9.87238 16.196 9.87238C14.5239 9.87238 13.7744 10.7911 13.3544 11.4382V11.471H13.3334L13.3544 11.4382V10.0968H10.2044C10.2438 10.9867 10.2044 19.5796 10.2044 19.5796H13.3544Z" fill="black"/>
</svg>
