<svg width="25" height="25" viewBox="0 0 25 25" fill="none" xmlns="http://www.w3.org/2000/svg">
<path d="M12.5 2.08325V4.16659" stroke="#F8F8F8" stroke-width="2.0" stroke-linecap="round" stroke-linejoin="round"/>
<path d="M15.4552 17.0678C15.1986 18.1503 14.6578 19.1446 13.8885 19.9482C13.1192 20.7518 12.1493 21.3355 11.0791 21.639C10.0088 21.9426 8.87697 21.9549 7.80034 21.6749C6.72371 21.3948 5.74135 20.8325 4.95467 20.0459C4.16799 19.2593 3.60551 18.277 3.3253 17.2004C3.04509 16.1239 3.0573 14.992 3.36069 13.9217C3.66407 12.8514 4.24763 11.8815 5.0511 11.1121C5.85458 10.3427 6.84886 9.80167 7.93128 9.54491C8.58128 9.39179 8.94169 10.2324 8.67607 10.8449C8.34448 11.6115 8.25092 12.46 8.40752 13.2804C8.56412 14.1008 8.96366 14.8552 9.55429 15.4457C10.1449 16.0362 10.8994 16.4356 11.7198 16.592C12.5402 16.7485 13.3887 16.6548 14.1552 16.323C14.7688 16.0574 15.6094 16.4168 15.4552 17.0678Z" stroke="#F8F8F8" stroke-width="2.0" stroke-linecap="round" stroke-linejoin="round"/>
<path d="M16.6667 12.4999C16.6667 11.3948 16.2277 10.335 15.4463 9.55364C14.6649 8.77224 13.6051 8.33325 12.5 8.33325" stroke="#F8F8F8" stroke-width="2.0" stroke-linecap="round" stroke-linejoin="round"/>
<path d="M19.7917 5.20825L18.4834 6.51659" stroke="#F8F8F8" stroke-width="2.0" stroke-linecap="round" stroke-linejoin="round"/>
<path d="M20.8333 12.5H22.9166" stroke="#F8F8F8" stroke-width="2.0" stroke-linecap="round" stroke-linejoin="round"/>
</svg>
