<svg width="25" height="25" viewBox="0 0 25 25" fill="none" xmlns="http://www.w3.org/2000/svg">
<path d="M20.8333 3.125H4.16667C3.59137 3.125 3.125 3.59137 3.125 4.16667V9.375C3.125 9.9503 3.59137 10.4167 4.16667 10.4167H20.8333C21.4086 10.4167 21.875 9.9503 21.875 9.375V4.16667C21.875 3.59137 21.4086 3.125 20.8333 3.125Z" stroke="black" stroke-width="2.0" stroke-linecap="round" stroke-linejoin="round"/>
<path d="M9.375 14.5833H4.16667C3.59137 14.5833 3.125 15.0496 3.125 15.6249V20.8333C3.125 21.4085 3.59137 21.8749 4.16667 21.8749H9.375C9.9503 21.8749 10.4167 21.4085 10.4167 20.8333V15.6249C10.4167 15.0496 9.9503 14.5833 9.375 14.5833Z" stroke="black" stroke-width="2.0" stroke-linecap="round" stroke-linejoin="round"/>
<path d="M20.8333 14.5833H15.625C15.0497 14.5833 14.5833 15.0496 14.5833 15.6249V20.8333C14.5833 21.4085 15.0497 21.8749 15.625 21.8749H20.8333C21.4086 21.8749 21.875 21.4085 21.875 20.8333V15.6249C21.875 15.0496 21.4086 14.5833 20.8333 14.5833Z" stroke="black" stroke-width="2.0" stroke-linecap="round" stroke-linejoin="round"/>
</svg>
